<mxfile host="app.diagrams.net" modified="2023-05-18T19:45:30.466Z" agent="Mozilla/5.0 (X11; Linux x86_64) AppleWebKit/537.36 (KHTML, like Gecko) Chrome/113.0.0.0 Safari/537.36" etag="Zmt8-oxz5doeGMf4DS2Q" version="21.3.2">
  <diagram name="Page-1" id="QlyCdYqnpjsWg7zI4hZc">
    <mxGraphModel dx="3309" dy="2421" grid="1" gridSize="10" guides="1" tooltips="1" connect="1" arrows="1" fold="1" page="1" pageScale="1" pageWidth="850" pageHeight="1100" math="0" shadow="0">
      <root>
        <mxCell id="0" />
        <mxCell id="1" parent="0" />
        <mxCell id="RymteMKPNR1__H-aDtK5-1" value="University" style="rounded=1;arcSize=10;whiteSpace=wrap;html=1;align=center;fontSize=15;" vertex="1" parent="1">
          <mxGeometry x="90" y="-130" width="100" height="40" as="geometry" />
        </mxCell>
        <mxCell id="RymteMKPNR1__H-aDtK5-2" value="Student" style="rounded=1;arcSize=10;whiteSpace=wrap;html=1;align=center;fontSize=15;" vertex="1" parent="1">
          <mxGeometry x="550" y="-100" width="100" height="40" as="geometry" />
        </mxCell>
        <mxCell id="RymteMKPNR1__H-aDtK5-3" value="Department" style="rounded=1;arcSize=10;whiteSpace=wrap;html=1;align=center;fontSize=15;" vertex="1" parent="1">
          <mxGeometry x="60" y="510" width="100" height="40" as="geometry" />
        </mxCell>
        <mxCell id="RymteMKPNR1__H-aDtK5-4" value="Professor" style="rounded=1;arcSize=10;whiteSpace=wrap;html=1;align=center;fontSize=15;" vertex="1" parent="1">
          <mxGeometry x="455" y="600" width="100" height="40" as="geometry" />
        </mxCell>
        <mxCell id="RymteMKPNR1__H-aDtK5-5" value="name" style="ellipse;whiteSpace=wrap;html=1;align=center;fontStyle=4;fontSize=15;" vertex="1" parent="1">
          <mxGeometry x="215" y="-190" width="100" height="40" as="geometry" />
        </mxCell>
        <mxCell id="RymteMKPNR1__H-aDtK5-6" value="address" style="ellipse;whiteSpace=wrap;html=1;align=center;fontSize=15;" vertex="1" parent="1">
          <mxGeometry x="-40" y="-190" width="100" height="40" as="geometry" />
        </mxCell>
        <mxCell id="RymteMKPNR1__H-aDtK5-7" value="city" style="ellipse;whiteSpace=wrap;html=1;align=center;fontSize=15;" vertex="1" parent="1">
          <mxGeometry x="-60" y="-120" width="100" height="40" as="geometry" />
        </mxCell>
        <mxCell id="RymteMKPNR1__H-aDtK5-8" value="phones" style="ellipse;whiteSpace=wrap;html=1;align=center;fontSize=15;" vertex="1" parent="1">
          <mxGeometry x="220" y="-80" width="100" height="40" as="geometry" />
        </mxCell>
        <mxCell id="RymteMKPNR1__H-aDtK5-9" value="description" style="ellipse;whiteSpace=wrap;html=1;align=center;fontSize=15;" vertex="1" parent="1">
          <mxGeometry x="-30" y="-30" width="100" height="40" as="geometry" />
        </mxCell>
        <mxCell id="RymteMKPNR1__H-aDtK5-11" value="depId" style="ellipse;whiteSpace=wrap;html=1;align=center;fontStyle=4;fontSize=15;" vertex="1" parent="1">
          <mxGeometry x="-70" y="358" width="100" height="40" as="geometry" />
        </mxCell>
        <mxCell id="RymteMKPNR1__H-aDtK5-12" value="name" style="ellipse;whiteSpace=wrap;html=1;align=center;fontSize=15;" vertex="1" parent="1">
          <mxGeometry x="-120" y="440" width="100" height="40" as="geometry" />
        </mxCell>
        <mxCell id="RymteMKPNR1__H-aDtK5-13" value="address" style="ellipse;whiteSpace=wrap;html=1;align=center;fontSize=15;" vertex="1" parent="1">
          <mxGeometry x="-110" y="530" width="100" height="40" as="geometry" />
        </mxCell>
        <mxCell id="RymteMKPNR1__H-aDtK5-14" value="email" style="ellipse;whiteSpace=wrap;html=1;align=center;fontSize=15;" vertex="1" parent="1">
          <mxGeometry x="40" y="640" width="100" height="40" as="geometry" />
        </mxCell>
        <mxCell id="RymteMKPNR1__H-aDtK5-15" value="receptionPhone" style="ellipse;whiteSpace=wrap;html=1;align=center;fontSize=15;" vertex="1" parent="1">
          <mxGeometry x="-70" y="600" width="120" height="40" as="geometry" />
        </mxCell>
        <mxCell id="RymteMKPNR1__H-aDtK5-16" value="HAS" style="rhombus;whiteSpace=wrap;html=1;fontSize=15;" vertex="1" parent="1">
          <mxGeometry x="100" y="20" width="80" height="80" as="geometry" />
        </mxCell>
        <mxCell id="RymteMKPNR1__H-aDtK5-18" value="" style="endArrow=none;html=1;rounded=0;entryX=0.5;entryY=1;entryDx=0;entryDy=0;exitX=0.5;exitY=0;exitDx=0;exitDy=0;fontSize=15;" edge="1" parent="1" source="RymteMKPNR1__H-aDtK5-16" target="RymteMKPNR1__H-aDtK5-1">
          <mxGeometry width="50" height="50" relative="1" as="geometry">
            <mxPoint x="100" y="-10" as="sourcePoint" />
            <mxPoint x="150" y="-60" as="targetPoint" />
          </mxGeometry>
        </mxCell>
        <mxCell id="RymteMKPNR1__H-aDtK5-19" value="(0, N)" style="text;html=1;align=center;verticalAlign=middle;resizable=0;points=[];autosize=1;strokeColor=none;fillColor=none;fontSize=15;" vertex="1" parent="1">
          <mxGeometry x="85" y="-50" width="60" height="30" as="geometry" />
        </mxCell>
        <mxCell id="RymteMKPNR1__H-aDtK5-20" value="" style="endArrow=none;html=1;rounded=0;entryX=0.5;entryY=1;entryDx=0;entryDy=0;exitX=0.5;exitY=0;exitDx=0;exitDy=0;fontSize=15;" edge="1" parent="1" source="RymteMKPNR1__H-aDtK5-3" target="RymteMKPNR1__H-aDtK5-16">
          <mxGeometry width="50" height="50" relative="1" as="geometry">
            <mxPoint x="110" y="400" as="sourcePoint" />
            <mxPoint x="160" y="350" as="targetPoint" />
          </mxGeometry>
        </mxCell>
        <mxCell id="RymteMKPNR1__H-aDtK5-21" value="(1,1)" style="text;html=1;align=center;verticalAlign=middle;resizable=0;points=[];autosize=1;strokeColor=none;fillColor=none;fontSize=15;" vertex="1" parent="1">
          <mxGeometry x="55" y="390" width="60" height="30" as="geometry" />
        </mxCell>
        <mxCell id="RymteMKPNR1__H-aDtK5-22" value="HAS" style="rhombus;whiteSpace=wrap;html=1;fontSize=15;" vertex="1" parent="1">
          <mxGeometry x="290" y="188" width="80" height="80" as="geometry" />
        </mxCell>
        <mxCell id="RymteMKPNR1__H-aDtK5-23" value="WORKS" style="rhombus;whiteSpace=wrap;html=1;fontSize=15;" vertex="1" parent="1">
          <mxGeometry x="260" y="500" width="80" height="80" as="geometry" />
        </mxCell>
        <mxCell id="RymteMKPNR1__H-aDtK5-24" value="" style="endArrow=none;html=1;rounded=0;entryX=0;entryY=0.5;entryDx=0;entryDy=0;exitX=1;exitY=0.5;exitDx=0;exitDy=0;fontSize=15;" edge="1" parent="1" source="RymteMKPNR1__H-aDtK5-3" target="RymteMKPNR1__H-aDtK5-23">
          <mxGeometry width="50" height="50" relative="1" as="geometry">
            <mxPoint x="150" y="530" as="sourcePoint" />
            <mxPoint x="200" y="480" as="targetPoint" />
          </mxGeometry>
        </mxCell>
        <mxCell id="RymteMKPNR1__H-aDtK5-25" value="" style="endArrow=none;html=1;rounded=0;entryX=0;entryY=0.5;entryDx=0;entryDy=0;exitX=1;exitY=0.5;exitDx=0;exitDy=0;fontSize=15;" edge="1" parent="1" source="RymteMKPNR1__H-aDtK5-23" target="RymteMKPNR1__H-aDtK5-4">
          <mxGeometry width="50" height="50" relative="1" as="geometry">
            <mxPoint x="310" y="540" as="sourcePoint" />
            <mxPoint x="360" y="490" as="targetPoint" />
          </mxGeometry>
        </mxCell>
        <mxCell id="RymteMKPNR1__H-aDtK5-26" value="(1, N)" style="text;html=1;align=center;verticalAlign=middle;resizable=0;points=[];autosize=1;strokeColor=none;fillColor=none;fontSize=15;" vertex="1" parent="1">
          <mxGeometry x="195" y="490" width="60" height="30" as="geometry" />
        </mxCell>
        <mxCell id="RymteMKPNR1__H-aDtK5-27" value="(0, 1)" style="text;html=1;align=center;verticalAlign=middle;resizable=0;points=[];autosize=1;strokeColor=none;fillColor=none;fontSize=15;" vertex="1" parent="1">
          <mxGeometry x="365" y="535" width="60" height="30" as="geometry" />
        </mxCell>
        <mxCell id="RymteMKPNR1__H-aDtK5-28" value="" style="endArrow=none;html=1;rounded=0;entryX=0.172;entryY=0.732;entryDx=0;entryDy=0;entryPerimeter=0;exitX=0.75;exitY=0;exitDx=0;exitDy=0;fontSize=15;" edge="1" parent="1" source="RymteMKPNR1__H-aDtK5-3" target="RymteMKPNR1__H-aDtK5-22">
          <mxGeometry width="50" height="50" relative="1" as="geometry">
            <mxPoint x="220" y="360" as="sourcePoint" />
            <mxPoint x="270" y="310" as="targetPoint" />
          </mxGeometry>
        </mxCell>
        <mxCell id="RymteMKPNR1__H-aDtK5-29" value="" style="endArrow=none;html=1;rounded=0;entryX=0;entryY=0.5;entryDx=0;entryDy=0;exitX=1;exitY=0;exitDx=0;exitDy=0;fontSize=15;" edge="1" parent="1" source="RymteMKPNR1__H-aDtK5-22" target="RymteMKPNR1__H-aDtK5-2">
          <mxGeometry width="50" height="50" relative="1" as="geometry">
            <mxPoint x="580" y="220" as="sourcePoint" />
            <mxPoint x="630" y="170" as="targetPoint" />
          </mxGeometry>
        </mxCell>
        <mxCell id="RymteMKPNR1__H-aDtK5-30" value="(1,1)" style="text;html=1;align=center;verticalAlign=middle;resizable=0;points=[];autosize=1;strokeColor=none;fillColor=none;fontSize=15;" vertex="1" parent="1">
          <mxGeometry x="420" y="10" width="60" height="30" as="geometry" />
        </mxCell>
        <mxCell id="RymteMKPNR1__H-aDtK5-31" value="stuId" style="ellipse;whiteSpace=wrap;html=1;align=center;fontStyle=4;fontSize=15;" vertex="1" parent="1">
          <mxGeometry x="430" y="-160" width="100" height="40" as="geometry" />
        </mxCell>
        <mxCell id="RymteMKPNR1__H-aDtK5-32" value="city" style="ellipse;whiteSpace=wrap;html=1;align=center;fontSize=15;" vertex="1" parent="1">
          <mxGeometry x="180" y="570" width="100" height="40" as="geometry" />
        </mxCell>
        <mxCell id="RymteMKPNR1__H-aDtK5-33" value="(0, N)" style="text;html=1;align=center;verticalAlign=middle;resizable=0;points=[];autosize=1;strokeColor=none;fillColor=none;fontSize=15;" vertex="1" parent="1">
          <mxGeometry x="170" y="340" width="60" height="30" as="geometry" />
        </mxCell>
        <mxCell id="RymteMKPNR1__H-aDtK5-34" value="firstName" style="ellipse;whiteSpace=wrap;html=1;align=center;fontSize=15;" vertex="1" parent="1">
          <mxGeometry x="550" y="-210" width="100" height="40" as="geometry" />
        </mxCell>
        <mxCell id="RymteMKPNR1__H-aDtK5-35" value="lastName" style="ellipse;whiteSpace=wrap;html=1;align=center;fontSize=15;" vertex="1" parent="1">
          <mxGeometry x="690" y="-170" width="100" height="40" as="geometry" />
        </mxCell>
        <mxCell id="RymteMKPNR1__H-aDtK5-36" value="birthDate" style="ellipse;whiteSpace=wrap;html=1;align=center;fontSize=15;" vertex="1" parent="1">
          <mxGeometry x="710" y="-90" width="100" height="40" as="geometry" />
        </mxCell>
        <mxCell id="RymteMKPNR1__H-aDtK5-37" value="homeCity" style="ellipse;whiteSpace=wrap;html=1;align=center;fontSize=15;" vertex="1" parent="1">
          <mxGeometry x="620" width="100" height="40" as="geometry" />
        </mxCell>
        <mxCell id="RymteMKPNR1__H-aDtK5-38" value="" style="triangle;whiteSpace=wrap;html=1;rotation=-91;fontSize=15;" vertex="1" parent="1">
          <mxGeometry x="870" width="60" height="80" as="geometry" />
        </mxCell>
        <mxCell id="RymteMKPNR1__H-aDtK5-39" value="IsA" style="text;html=1;align=center;verticalAlign=middle;resizable=0;points=[];autosize=1;strokeColor=none;fillColor=none;fontSize=15;" vertex="1" parent="1">
          <mxGeometry x="875" y="30" width="50" height="30" as="geometry" />
        </mxCell>
        <mxCell id="RymteMKPNR1__H-aDtK5-40" value="" style="endArrow=none;html=1;rounded=0;entryX=0;entryY=0.5;entryDx=0;entryDy=0;exitX=0.25;exitY=0;exitDx=0;exitDy=0;fontSize=15;" edge="1" parent="1" source="RymteMKPNR1__H-aDtK5-42" target="RymteMKPNR1__H-aDtK5-38">
          <mxGeometry width="50" height="50" relative="1" as="geometry">
            <mxPoint x="930" y="230" as="sourcePoint" />
            <mxPoint x="960" y="170" as="targetPoint" />
          </mxGeometry>
        </mxCell>
        <mxCell id="RymteMKPNR1__H-aDtK5-41" value="postDegree" style="rounded=1;arcSize=10;whiteSpace=wrap;html=1;align=center;fontSize=15;" vertex="1" parent="1">
          <mxGeometry x="1010" y="260" width="100" height="40" as="geometry" />
        </mxCell>
        <mxCell id="RymteMKPNR1__H-aDtK5-42" value="preDegree" style="rounded=1;arcSize=10;whiteSpace=wrap;html=1;align=center;fontSize=15;" vertex="1" parent="1">
          <mxGeometry x="880" y="260" width="100" height="40" as="geometry" />
        </mxCell>
        <mxCell id="RymteMKPNR1__H-aDtK5-44" value="" style="endArrow=none;html=1;rounded=0;entryX=-0.003;entryY=0.618;entryDx=0;entryDy=0;entryPerimeter=0;exitX=0.5;exitY=0;exitDx=0;exitDy=0;fontSize=15;" edge="1" parent="1" source="RymteMKPNR1__H-aDtK5-41" target="RymteMKPNR1__H-aDtK5-38">
          <mxGeometry width="50" height="50" relative="1" as="geometry">
            <mxPoint x="950" y="200" as="sourcePoint" />
            <mxPoint x="1000" y="150" as="targetPoint" />
          </mxGeometry>
        </mxCell>
        <mxCell id="RymteMKPNR1__H-aDtK5-45" value="enrollYear" style="ellipse;whiteSpace=wrap;html=1;align=center;fontSize=15;" vertex="1" parent="1">
          <mxGeometry x="810" y="358" width="100" height="40" as="geometry" />
        </mxCell>
        <mxCell id="RymteMKPNR1__H-aDtK5-46" value="avgGrade" style="ellipse;whiteSpace=wrap;html=1;align=center;fontSize=15;" vertex="1" parent="1">
          <mxGeometry x="940" y="360" width="100" height="40" as="geometry" />
        </mxCell>
        <mxCell id="RymteMKPNR1__H-aDtK5-47" value="degreeTitle" style="ellipse;whiteSpace=wrap;html=1;align=center;fontSize=15;" vertex="1" parent="1">
          <mxGeometry x="1100" y="340" width="100" height="40" as="geometry" />
        </mxCell>
        <mxCell id="RymteMKPNR1__H-aDtK5-48" value="degreeGrade" style="ellipse;whiteSpace=wrap;html=1;align=center;fontSize=15;" vertex="1" parent="1">
          <mxGeometry x="1160" y="258" width="100" height="40" as="geometry" />
        </mxCell>
        <mxCell id="RymteMKPNR1__H-aDtK5-49" value="thesisTitle" style="ellipse;whiteSpace=wrap;html=1;align=center;fontSize=15;" vertex="1" parent="1">
          <mxGeometry x="1100" y="180" width="100" height="40" as="geometry" />
        </mxCell>
        <mxCell id="RymteMKPNR1__H-aDtK5-51" value="Subject" style="rounded=1;arcSize=10;whiteSpace=wrap;html=1;align=center;fontSize=15;" vertex="1" parent="1">
          <mxGeometry x="565" y="320" width="100" height="40" as="geometry" />
        </mxCell>
        <mxCell id="RymteMKPNR1__H-aDtK5-53" value="subId" style="ellipse;whiteSpace=wrap;html=1;align=center;fontStyle=4;fontSize=15;" vertex="1" parent="1">
          <mxGeometry x="420" y="320" width="100" height="40" as="geometry" />
        </mxCell>
        <mxCell id="RymteMKPNR1__H-aDtK5-54" value="name" style="ellipse;whiteSpace=wrap;html=1;align=center;fontSize=15;" vertex="1" parent="1">
          <mxGeometry x="650" y="390" width="100" height="40" as="geometry" />
        </mxCell>
        <mxCell id="RymteMKPNR1__H-aDtK5-55" value="description" style="ellipse;whiteSpace=wrap;html=1;align=center;fontSize=15;" vertex="1" parent="1">
          <mxGeometry x="665" y="258" width="100" height="40" as="geometry" />
        </mxCell>
        <mxCell id="RymteMKPNR1__H-aDtK5-57" value="ATTENDS" style="rhombus;whiteSpace=wrap;html=1;fontSize=15;" vertex="1" parent="1">
          <mxGeometry x="575" y="170" width="80" height="80" as="geometry" />
        </mxCell>
        <mxCell id="RymteMKPNR1__H-aDtK5-58" value="" style="endArrow=none;html=1;rounded=0;entryX=0.5;entryY=1;entryDx=0;entryDy=0;exitX=0.5;exitY=0;exitDx=0;exitDy=0;fontSize=15;" edge="1" parent="1" source="RymteMKPNR1__H-aDtK5-51" target="RymteMKPNR1__H-aDtK5-57">
          <mxGeometry width="50" height="50" relative="1" as="geometry">
            <mxPoint x="535" y="320" as="sourcePoint" />
            <mxPoint x="585" y="270" as="targetPoint" />
          </mxGeometry>
        </mxCell>
        <mxCell id="RymteMKPNR1__H-aDtK5-59" value="(1, N)" style="text;html=1;align=center;verticalAlign=middle;resizable=0;points=[];autosize=1;strokeColor=none;fillColor=none;fontSize=15;" vertex="1" parent="1">
          <mxGeometry x="550" y="20" width="60" height="30" as="geometry" />
        </mxCell>
        <mxCell id="RymteMKPNR1__H-aDtK5-60" value="(1, N)" style="text;html=1;align=center;verticalAlign=middle;resizable=0;points=[];autosize=1;strokeColor=none;fillColor=none;fontSize=15;" vertex="1" parent="1">
          <mxGeometry x="565" y="268" width="60" height="30" as="geometry" />
        </mxCell>
        <mxCell id="RymteMKPNR1__H-aDtK5-61" value="grade" style="ellipse;whiteSpace=wrap;html=1;align=center;fontSize=15;" vertex="1" parent="1">
          <mxGeometry x="665" y="130" width="100" height="40" as="geometry" />
        </mxCell>
        <mxCell id="RymteMKPNR1__H-aDtK5-63" value="" style="endArrow=none;html=1;rounded=0;entryX=0.5;entryY=1;entryDx=0;entryDy=0;exitX=0.5;exitY=0;exitDx=0;exitDy=0;fontSize=15;" edge="1" parent="1" source="RymteMKPNR1__H-aDtK5-57" target="RymteMKPNR1__H-aDtK5-2">
          <mxGeometry width="50" height="50" relative="1" as="geometry">
            <mxPoint x="560" y="130" as="sourcePoint" />
            <mxPoint x="610" y="80" as="targetPoint" />
          </mxGeometry>
        </mxCell>
        <mxCell id="RymteMKPNR1__H-aDtK5-65" value="" style="endArrow=none;html=1;rounded=0;entryX=0;entryY=1;entryDx=0;entryDy=0;exitX=1;exitY=0;exitDx=0;exitDy=0;fontSize=15;" edge="1" parent="1" source="RymteMKPNR1__H-aDtK5-57" target="RymteMKPNR1__H-aDtK5-61">
          <mxGeometry width="50" height="50" relative="1" as="geometry">
            <mxPoint x="360" y="250" as="sourcePoint" />
            <mxPoint x="410" y="200" as="targetPoint" />
            <Array as="points">
              <mxPoint x="650" y="180" />
            </Array>
          </mxGeometry>
        </mxCell>
        <mxCell id="RymteMKPNR1__H-aDtK5-66" value="TEACHES" style="rhombus;whiteSpace=wrap;html=1;fontSize=15;" vertex="1" parent="1">
          <mxGeometry x="520" y="440" width="80" height="80" as="geometry" />
        </mxCell>
        <mxCell id="RymteMKPNR1__H-aDtK5-67" value="" style="endArrow=none;html=1;rounded=0;entryX=0.165;entryY=0.73;entryDx=0;entryDy=0;entryPerimeter=0;exitX=0.667;exitY=-0.043;exitDx=0;exitDy=0;exitPerimeter=0;fontSize=15;" edge="1" parent="1" source="RymteMKPNR1__H-aDtK5-4" target="RymteMKPNR1__H-aDtK5-66">
          <mxGeometry width="50" height="50" relative="1" as="geometry">
            <mxPoint x="490" y="740" as="sourcePoint" />
            <mxPoint x="540" y="690" as="targetPoint" />
          </mxGeometry>
        </mxCell>
        <mxCell id="RymteMKPNR1__H-aDtK5-68" value="" style="endArrow=none;html=1;rounded=0;entryX=0.25;entryY=1;entryDx=0;entryDy=0;exitX=0.5;exitY=0;exitDx=0;exitDy=0;fontSize=15;" edge="1" parent="1" source="RymteMKPNR1__H-aDtK5-66" target="RymteMKPNR1__H-aDtK5-51">
          <mxGeometry width="50" height="50" relative="1" as="geometry">
            <mxPoint x="410" y="480" as="sourcePoint" />
            <mxPoint x="460" y="430" as="targetPoint" />
          </mxGeometry>
        </mxCell>
        <mxCell id="RymteMKPNR1__H-aDtK5-69" value="(0, N)" style="text;html=1;align=center;verticalAlign=middle;resizable=0;points=[];autosize=1;strokeColor=none;fillColor=none;fontSize=15;" vertex="1" parent="1">
          <mxGeometry x="475" y="520" width="60" height="30" as="geometry" />
        </mxCell>
        <mxCell id="RymteMKPNR1__H-aDtK5-70" value="(1, 1)" style="text;html=1;align=center;verticalAlign=middle;resizable=0;points=[];autosize=1;strokeColor=none;fillColor=none;fontSize=15;" vertex="1" parent="1">
          <mxGeometry x="530" y="370" width="60" height="30" as="geometry" />
        </mxCell>
        <mxCell id="RymteMKPNR1__H-aDtK5-72" value="Employee" style="rounded=1;arcSize=10;whiteSpace=wrap;html=1;align=center;fontSize=15;" vertex="1" parent="1">
          <mxGeometry x="750" y="750" width="100" height="40" as="geometry" />
        </mxCell>
        <mxCell id="RymteMKPNR1__H-aDtK5-73" value="" style="triangle;whiteSpace=wrap;html=1;rotation=-90;fontSize=15;" vertex="1" parent="1">
          <mxGeometry x="770" y="820" width="60" height="80" as="geometry" />
        </mxCell>
        <mxCell id="RymteMKPNR1__H-aDtK5-74" value="IsA" style="text;html=1;align=center;verticalAlign=middle;resizable=0;points=[];autosize=1;strokeColor=none;fillColor=none;fontSize=15;" vertex="1" parent="1">
          <mxGeometry x="775" y="850" width="50" height="30" as="geometry" />
        </mxCell>
        <mxCell id="RymteMKPNR1__H-aDtK5-75" value="HeadEmployee" style="rounded=1;arcSize=10;whiteSpace=wrap;html=1;align=center;fontSize=15;" vertex="1" parent="1">
          <mxGeometry x="410" y="1110" width="110" height="40" as="geometry" />
        </mxCell>
        <mxCell id="RymteMKPNR1__H-aDtK5-76" value="" style="endArrow=none;html=1;rounded=0;entryX=0.5;entryY=1;entryDx=0;entryDy=0;exitX=1;exitY=0.5;exitDx=0;exitDy=0;fontSize=15;" edge="1" parent="1" source="RymteMKPNR1__H-aDtK5-73" target="RymteMKPNR1__H-aDtK5-72">
          <mxGeometry width="50" height="50" relative="1" as="geometry">
            <mxPoint x="525" y="900" as="sourcePoint" />
            <mxPoint x="575" y="850" as="targetPoint" />
          </mxGeometry>
        </mxCell>
        <mxCell id="RymteMKPNR1__H-aDtK5-77" value="" style="endArrow=none;html=1;rounded=0;exitX=-0.033;exitY=0.826;exitDx=0;exitDy=0;entryX=1;entryY=0;entryDx=0;entryDy=0;exitPerimeter=0;fontSize=15;" edge="1" parent="1" source="RymteMKPNR1__H-aDtK5-73" target="RymteMKPNR1__H-aDtK5-75">
          <mxGeometry width="50" height="50" relative="1" as="geometry">
            <mxPoint x="675" y="950" as="sourcePoint" />
            <mxPoint x="970" y="1030" as="targetPoint" />
          </mxGeometry>
        </mxCell>
        <mxCell id="RymteMKPNR1__H-aDtK5-78" value="" style="endArrow=none;html=1;rounded=0;entryX=0.853;entryY=1.024;entryDx=0;entryDy=0;exitX=-0.006;exitY=-0.004;exitDx=0;exitDy=0;exitPerimeter=0;entryPerimeter=0;fontSize=15;" edge="1" parent="1" source="RymteMKPNR1__H-aDtK5-73" target="RymteMKPNR1__H-aDtK5-4">
          <mxGeometry width="50" height="50" relative="1" as="geometry">
            <mxPoint x="650" y="970" as="sourcePoint" />
            <mxPoint x="470" y="850" as="targetPoint" />
          </mxGeometry>
        </mxCell>
        <mxCell id="RymteMKPNR1__H-aDtK5-79" value="empId" style="ellipse;whiteSpace=wrap;html=1;align=center;fontStyle=4;fontSize=15;" vertex="1" parent="1">
          <mxGeometry x="890" y="700" width="100" height="40" as="geometry" />
        </mxCell>
        <mxCell id="RymteMKPNR1__H-aDtK5-80" value="lastName" style="ellipse;whiteSpace=wrap;html=1;align=center;fontSize=15;" vertex="1" parent="1">
          <mxGeometry x="880" y="830" width="100" height="40" as="geometry" />
        </mxCell>
        <mxCell id="RymteMKPNR1__H-aDtK5-82" value="firstName" style="ellipse;whiteSpace=wrap;html=1;align=center;fontSize=15;" vertex="1" parent="1">
          <mxGeometry x="910" y="760" width="100" height="40" as="geometry" />
        </mxCell>
        <mxCell id="RymteMKPNR1__H-aDtK5-83" value="address" style="ellipse;whiteSpace=wrap;html=1;align=center;fontSize=15;" vertex="1" parent="1">
          <mxGeometry x="665" y="670" width="100" height="40" as="geometry" />
        </mxCell>
        <mxCell id="RymteMKPNR1__H-aDtK5-84" value="birthDate" style="ellipse;whiteSpace=wrap;html=1;align=center;fontSize=15;" vertex="1" parent="1">
          <mxGeometry x="790" y="650" width="100" height="40" as="geometry" />
        </mxCell>
        <mxCell id="RymteMKPNR1__H-aDtK5-85" value="SSN" style="ellipse;whiteSpace=wrap;html=1;align=center;fontStyle=4;fontSize=15;" vertex="1" parent="1">
          <mxGeometry x="300" y="1170" width="100" height="40" as="geometry" />
        </mxCell>
        <mxCell id="RymteMKPNR1__H-aDtK5-86" value="monthlySalary" style="ellipse;whiteSpace=wrap;html=1;align=center;fontSize=15;" vertex="1" parent="1">
          <mxGeometry x="440" y="1030" width="110" height="40" as="geometry" />
        </mxCell>
        <mxCell id="RymteMKPNR1__H-aDtK5-87" value="specialty" style="ellipse;whiteSpace=wrap;html=1;align=center;fontSize=15;" vertex="1" parent="1">
          <mxGeometry x="570" y="1140" width="100" height="40" as="geometry" />
        </mxCell>
        <mxCell id="RymteMKPNR1__H-aDtK5-88" value="dutyYears" style="ellipse;whiteSpace=wrap;html=1;align=center;fontSize=15;" vertex="1" parent="1">
          <mxGeometry x="430" y="1190" width="100" height="40" as="geometry" />
        </mxCell>
        <mxCell id="RymteMKPNR1__H-aDtK5-89" value="WORKS" style="rhombus;whiteSpace=wrap;html=1;fontSize=15;" vertex="1" parent="1">
          <mxGeometry x="250" y="810" width="80" height="80" as="geometry" />
        </mxCell>
        <mxCell id="RymteMKPNR1__H-aDtK5-90" value="" style="endArrow=none;html=1;rounded=0;entryX=0.641;entryY=1.04;entryDx=0;entryDy=0;entryPerimeter=0;exitX=0.333;exitY=0.141;exitDx=0;exitDy=0;exitPerimeter=0;fontSize=15;" edge="1" parent="1" source="RymteMKPNR1__H-aDtK5-89" target="RymteMKPNR1__H-aDtK5-3">
          <mxGeometry width="50" height="50" relative="1" as="geometry">
            <mxPoint x="180" y="760" as="sourcePoint" />
            <mxPoint x="230" y="710" as="targetPoint" />
          </mxGeometry>
        </mxCell>
        <mxCell id="RymteMKPNR1__H-aDtK5-91" value="" style="endArrow=none;html=1;rounded=0;entryX=0.64;entryY=0.945;entryDx=0;entryDy=0;entryPerimeter=0;exitX=0;exitY=0;exitDx=0;exitDy=0;fontSize=15;" edge="1" parent="1" source="RymteMKPNR1__H-aDtK5-75" target="RymteMKPNR1__H-aDtK5-89">
          <mxGeometry width="50" height="50" relative="1" as="geometry">
            <mxPoint x="330" y="1110" as="sourcePoint" />
            <mxPoint x="380" y="1060" as="targetPoint" />
          </mxGeometry>
        </mxCell>
        <mxCell id="RymteMKPNR1__H-aDtK5-92" value="(1, N)" style="text;html=1;align=center;verticalAlign=middle;resizable=0;points=[];autosize=1;strokeColor=none;fillColor=none;fontSize=15;" vertex="1" parent="1">
          <mxGeometry x="160" y="698" width="60" height="30" as="geometry" />
        </mxCell>
        <mxCell id="RymteMKPNR1__H-aDtK5-93" value="(1, 1)" style="text;html=1;align=center;verticalAlign=middle;resizable=0;points=[];autosize=1;strokeColor=none;fillColor=none;fontSize=15;" vertex="1" parent="1">
          <mxGeometry x="315" y="1000" width="60" height="30" as="geometry" />
        </mxCell>
        <mxCell id="RymteMKPNR1__H-aDtK5-94" value="rank" style="ellipse;whiteSpace=wrap;html=1;align=center;fontSize=15;" vertex="1" parent="1">
          <mxGeometry x="330" y="640" width="100" height="40" as="geometry" />
        </mxCell>
        <mxCell id="RymteMKPNR1__H-aDtK5-95" value="doctorateDuration" style="ellipse;whiteSpace=wrap;html=1;align=center;fontSize=15;" vertex="1" parent="1">
          <mxGeometry x="350" y="700" width="135" height="40" as="geometry" />
        </mxCell>
        <mxCell id="RymteMKPNR1__H-aDtK5-96" value="postCount" style="ellipse;whiteSpace=wrap;html=1;align=center;fontSize=15;" vertex="1" parent="1">
          <mxGeometry x="585" y="565" width="100" height="40" as="geometry" />
        </mxCell>
        <mxCell id="RymteMKPNR1__H-aDtK5-97" value="mastersCount" style="ellipse;whiteSpace=wrap;html=1;align=center;fontSize=15;" vertex="1" parent="1">
          <mxGeometry x="500" y="710" width="110" height="40" as="geometry" />
        </mxCell>
        <mxCell id="RymteMKPNR1__H-aDtK5-98" value="" style="endArrow=none;html=1;rounded=0;entryX=1;entryY=1;entryDx=0;entryDy=0;exitX=0.419;exitY=0.225;exitDx=0;exitDy=0;exitPerimeter=0;fontSize=15;" edge="1" parent="1" source="RymteMKPNR1__H-aDtK5-38" target="RymteMKPNR1__H-aDtK5-2">
          <mxGeometry width="50" height="50" relative="1" as="geometry">
            <mxPoint x="770" y="60" as="sourcePoint" />
            <mxPoint x="820" y="10" as="targetPoint" />
          </mxGeometry>
        </mxCell>
        <mxCell id="RymteMKPNR1__H-aDtK5-99" value="" style="endArrow=none;html=1;rounded=0;entryX=1.025;entryY=0.628;entryDx=0;entryDy=0;entryPerimeter=0;exitX=0;exitY=0;exitDx=0;exitDy=0;fontSize=15;" edge="1" parent="1" source="RymteMKPNR1__H-aDtK5-1" target="RymteMKPNR1__H-aDtK5-6">
          <mxGeometry width="50" height="50" relative="1" as="geometry">
            <mxPoint x="120" y="-180" as="sourcePoint" />
            <mxPoint x="170" y="-230" as="targetPoint" />
          </mxGeometry>
        </mxCell>
        <mxCell id="RymteMKPNR1__H-aDtK5-100" value="" style="shape=link;html=1;rounded=0;exitX=0.724;exitY=1.026;exitDx=0;exitDy=0;exitPerimeter=0;entryX=0.02;entryY=0.308;entryDx=0;entryDy=0;entryPerimeter=0;fontSize=15;" edge="1" parent="1" source="RymteMKPNR1__H-aDtK5-1" target="RymteMKPNR1__H-aDtK5-8">
          <mxGeometry width="100" relative="1" as="geometry">
            <mxPoint x="160" y="-40" as="sourcePoint" />
            <mxPoint x="260" y="-40" as="targetPoint" />
          </mxGeometry>
        </mxCell>
        <mxCell id="RymteMKPNR1__H-aDtK5-101" value="" style="endArrow=none;html=1;rounded=0;entryX=0;entryY=0.5;entryDx=0;entryDy=0;exitX=1.021;exitY=0.615;exitDx=0;exitDy=0;exitPerimeter=0;fontSize=15;" edge="1" parent="1" source="RymteMKPNR1__H-aDtK5-7" target="RymteMKPNR1__H-aDtK5-1">
          <mxGeometry width="50" height="50" relative="1" as="geometry">
            <mxPoint x="20" y="-30" as="sourcePoint" />
            <mxPoint x="70" y="-80" as="targetPoint" />
          </mxGeometry>
        </mxCell>
        <mxCell id="RymteMKPNR1__H-aDtK5-102" value="" style="endArrow=none;html=1;rounded=0;entryX=0.054;entryY=1.074;entryDx=0;entryDy=0;entryPerimeter=0;exitX=0.788;exitY=0.115;exitDx=0;exitDy=0;exitPerimeter=0;fontSize=15;" edge="1" parent="1" source="RymteMKPNR1__H-aDtK5-9" target="RymteMKPNR1__H-aDtK5-1">
          <mxGeometry width="50" height="50" relative="1" as="geometry">
            <mxPoint as="sourcePoint" />
            <mxPoint x="50" y="-50" as="targetPoint" />
          </mxGeometry>
        </mxCell>
        <mxCell id="RymteMKPNR1__H-aDtK5-103" value="" style="endArrow=none;html=1;rounded=0;entryX=0.049;entryY=0.782;entryDx=0;entryDy=0;entryPerimeter=0;exitX=0.75;exitY=0;exitDx=0;exitDy=0;fontSize=15;" edge="1" parent="1" source="RymteMKPNR1__H-aDtK5-1" target="RymteMKPNR1__H-aDtK5-5">
          <mxGeometry width="50" height="50" relative="1" as="geometry">
            <mxPoint x="250" y="40" as="sourcePoint" />
            <mxPoint x="300" y="-10" as="targetPoint" />
          </mxGeometry>
        </mxCell>
        <mxCell id="RymteMKPNR1__H-aDtK5-104" value="" style="endArrow=none;html=1;rounded=0;entryX=0.901;entryY=0.834;entryDx=0;entryDy=0;entryPerimeter=0;exitX=0.186;exitY=-0.07;exitDx=0;exitDy=0;exitPerimeter=0;fontSize=15;" edge="1" parent="1" source="RymteMKPNR1__H-aDtK5-3" target="RymteMKPNR1__H-aDtK5-11">
          <mxGeometry width="50" height="50" relative="1" as="geometry">
            <mxPoint x="-10" y="510" as="sourcePoint" />
            <mxPoint x="40" y="460" as="targetPoint" />
          </mxGeometry>
        </mxCell>
        <mxCell id="RymteMKPNR1__H-aDtK5-105" value="" style="endArrow=none;html=1;rounded=0;entryX=1;entryY=0.5;entryDx=0;entryDy=0;exitX=-0.029;exitY=0.149;exitDx=0;exitDy=0;exitPerimeter=0;fontSize=15;" edge="1" parent="1" source="RymteMKPNR1__H-aDtK5-3" target="RymteMKPNR1__H-aDtK5-12">
          <mxGeometry width="50" height="50" relative="1" as="geometry">
            <mxPoint x="-30" y="530" as="sourcePoint" />
            <mxPoint x="20" y="480" as="targetPoint" />
          </mxGeometry>
        </mxCell>
        <mxCell id="RymteMKPNR1__H-aDtK5-106" value="" style="endArrow=none;html=1;rounded=0;entryX=0;entryY=0.5;entryDx=0;entryDy=0;exitX=1;exitY=0.5;exitDx=0;exitDy=0;fontSize=15;" edge="1" parent="1" source="RymteMKPNR1__H-aDtK5-13" target="RymteMKPNR1__H-aDtK5-3">
          <mxGeometry width="50" height="50" relative="1" as="geometry">
            <mxPoint x="-20" y="610" as="sourcePoint" />
            <mxPoint x="30" y="560" as="targetPoint" />
          </mxGeometry>
        </mxCell>
        <mxCell id="RymteMKPNR1__H-aDtK5-107" value="" style="endArrow=none;html=1;rounded=0;entryX=0.25;entryY=1;entryDx=0;entryDy=0;exitX=0.701;exitY=-0.031;exitDx=0;exitDy=0;exitPerimeter=0;fontSize=15;" edge="1" parent="1" source="RymteMKPNR1__H-aDtK5-15" target="RymteMKPNR1__H-aDtK5-3">
          <mxGeometry width="50" height="50" relative="1" as="geometry">
            <mxPoint x="40" y="630" as="sourcePoint" />
            <mxPoint x="90" y="580" as="targetPoint" />
          </mxGeometry>
        </mxCell>
        <mxCell id="RymteMKPNR1__H-aDtK5-108" value="" style="endArrow=none;html=1;rounded=0;entryX=0.402;entryY=1.058;entryDx=0;entryDy=0;entryPerimeter=0;exitX=0.5;exitY=0;exitDx=0;exitDy=0;fontSize=15;" edge="1" parent="1" source="RymteMKPNR1__H-aDtK5-14" target="RymteMKPNR1__H-aDtK5-3">
          <mxGeometry width="50" height="50" relative="1" as="geometry">
            <mxPoint x="40" y="630" as="sourcePoint" />
            <mxPoint x="90" y="580" as="targetPoint" />
          </mxGeometry>
        </mxCell>
        <mxCell id="RymteMKPNR1__H-aDtK5-109" value="" style="endArrow=none;html=1;rounded=0;entryX=0.86;entryY=1.032;entryDx=0;entryDy=0;entryPerimeter=0;exitX=0.054;exitY=0.24;exitDx=0;exitDy=0;exitPerimeter=0;fontSize=15;" edge="1" parent="1" source="RymteMKPNR1__H-aDtK5-32" target="RymteMKPNR1__H-aDtK5-3">
          <mxGeometry width="50" height="50" relative="1" as="geometry">
            <mxPoint x="190" y="670" as="sourcePoint" />
            <mxPoint x="240" y="620" as="targetPoint" />
          </mxGeometry>
        </mxCell>
        <mxCell id="RymteMKPNR1__H-aDtK5-110" value="" style="endArrow=none;html=1;rounded=0;entryX=0.83;entryY=0.971;entryDx=0;entryDy=0;entryPerimeter=0;exitX=0;exitY=0;exitDx=0;exitDy=0;fontSize=15;" edge="1" parent="1" source="RymteMKPNR1__H-aDtK5-2" target="RymteMKPNR1__H-aDtK5-31">
          <mxGeometry width="50" height="50" relative="1" as="geometry">
            <mxPoint x="380" y="-20" as="sourcePoint" />
            <mxPoint x="430" y="-70" as="targetPoint" />
          </mxGeometry>
        </mxCell>
        <mxCell id="RymteMKPNR1__H-aDtK5-111" value="" style="endArrow=none;html=1;rounded=0;entryX=0.5;entryY=1;entryDx=0;entryDy=0;exitX=0.461;exitY=-0.085;exitDx=0;exitDy=0;exitPerimeter=0;fontSize=15;" edge="1" parent="1" source="RymteMKPNR1__H-aDtK5-2" target="RymteMKPNR1__H-aDtK5-34">
          <mxGeometry width="50" height="50" relative="1" as="geometry">
            <mxPoint x="550" y="-100" as="sourcePoint" />
            <mxPoint x="600" y="-150" as="targetPoint" />
          </mxGeometry>
        </mxCell>
        <mxCell id="RymteMKPNR1__H-aDtK5-112" value="" style="endArrow=none;html=1;rounded=0;entryX=-0.001;entryY=0.587;entryDx=0;entryDy=0;entryPerimeter=0;exitX=0.75;exitY=0;exitDx=0;exitDy=0;fontSize=15;" edge="1" parent="1" source="RymteMKPNR1__H-aDtK5-2" target="RymteMKPNR1__H-aDtK5-35">
          <mxGeometry width="50" height="50" relative="1" as="geometry">
            <mxPoint x="610" y="-80" as="sourcePoint" />
            <mxPoint x="660" y="-130" as="targetPoint" />
          </mxGeometry>
        </mxCell>
        <mxCell id="RymteMKPNR1__H-aDtK5-113" value="" style="endArrow=none;html=1;rounded=0;entryX=0;entryY=0.5;entryDx=0;entryDy=0;exitX=1;exitY=0.5;exitDx=0;exitDy=0;fontSize=15;" edge="1" parent="1" source="RymteMKPNR1__H-aDtK5-2" target="RymteMKPNR1__H-aDtK5-36">
          <mxGeometry width="50" height="50" relative="1" as="geometry">
            <mxPoint x="650" y="-10" as="sourcePoint" />
            <mxPoint x="700" y="-60" as="targetPoint" />
          </mxGeometry>
        </mxCell>
        <mxCell id="RymteMKPNR1__H-aDtK5-114" value="" style="endArrow=none;html=1;rounded=0;entryX=0.794;entryY=1.07;entryDx=0;entryDy=0;entryPerimeter=0;exitX=0.303;exitY=0.059;exitDx=0;exitDy=0;exitPerimeter=0;fontSize=15;" edge="1" parent="1" source="RymteMKPNR1__H-aDtK5-37" target="RymteMKPNR1__H-aDtK5-2">
          <mxGeometry width="50" height="50" relative="1" as="geometry">
            <mxPoint x="580" y="20" as="sourcePoint" />
            <mxPoint x="630" y="-30" as="targetPoint" />
          </mxGeometry>
        </mxCell>
        <mxCell id="RymteMKPNR1__H-aDtK5-115" value="" style="endArrow=none;html=1;rounded=0;entryX=0.041;entryY=0.726;entryDx=0;entryDy=0;entryPerimeter=0;exitX=0.848;exitY=-0.071;exitDx=0;exitDy=0;exitPerimeter=0;fontSize=15;" edge="1" parent="1" source="RymteMKPNR1__H-aDtK5-51" target="RymteMKPNR1__H-aDtK5-55">
          <mxGeometry width="50" height="50" relative="1" as="geometry">
            <mxPoint x="490" y="320" as="sourcePoint" />
            <mxPoint x="540" y="270" as="targetPoint" />
          </mxGeometry>
        </mxCell>
        <mxCell id="RymteMKPNR1__H-aDtK5-116" value="" style="endArrow=none;html=1;rounded=0;entryX=0.002;entryY=0.377;entryDx=0;entryDy=0;entryPerimeter=0;exitX=1;exitY=0.5;exitDx=0;exitDy=0;fontSize=15;" edge="1" parent="1" source="RymteMKPNR1__H-aDtK5-53" target="RymteMKPNR1__H-aDtK5-51">
          <mxGeometry width="50" height="50" relative="1" as="geometry">
            <mxPoint x="430" y="330" as="sourcePoint" />
            <mxPoint x="480" y="280" as="targetPoint" />
          </mxGeometry>
        </mxCell>
        <mxCell id="RymteMKPNR1__H-aDtK5-117" value="" style="endArrow=none;html=1;rounded=0;entryX=0.75;entryY=1;entryDx=0;entryDy=0;exitX=0;exitY=0;exitDx=0;exitDy=0;fontSize=15;" edge="1" parent="1" source="RymteMKPNR1__H-aDtK5-54" target="RymteMKPNR1__H-aDtK5-51">
          <mxGeometry width="50" height="50" relative="1" as="geometry">
            <mxPoint x="620" y="450" as="sourcePoint" />
            <mxPoint x="670" y="400" as="targetPoint" />
          </mxGeometry>
        </mxCell>
        <mxCell id="RymteMKPNR1__H-aDtK5-118" value="" style="endArrow=none;html=1;rounded=0;entryX=0.068;entryY=0.743;entryDx=0;entryDy=0;entryPerimeter=0;exitX=1;exitY=0.5;exitDx=0;exitDy=0;fontSize=15;" edge="1" parent="1" source="RymteMKPNR1__H-aDtK5-4" target="RymteMKPNR1__H-aDtK5-96">
          <mxGeometry width="50" height="50" relative="1" as="geometry">
            <mxPoint x="460" y="700" as="sourcePoint" />
            <mxPoint x="510" y="650" as="targetPoint" />
          </mxGeometry>
        </mxCell>
        <mxCell id="RymteMKPNR1__H-aDtK5-119" value="" style="endArrow=none;html=1;rounded=0;entryX=0.667;entryY=1.081;entryDx=0;entryDy=0;entryPerimeter=0;exitX=0.5;exitY=0;exitDx=0;exitDy=0;fontSize=15;" edge="1" parent="1" source="RymteMKPNR1__H-aDtK5-97" target="RymteMKPNR1__H-aDtK5-4">
          <mxGeometry width="50" height="50" relative="1" as="geometry">
            <mxPoint x="470" y="860" as="sourcePoint" />
            <mxPoint x="520" y="810" as="targetPoint" />
          </mxGeometry>
        </mxCell>
        <mxCell id="RymteMKPNR1__H-aDtK5-120" value="" style="endArrow=none;html=1;rounded=0;entryX=0.25;entryY=1;entryDx=0;entryDy=0;exitX=0.728;exitY=0.028;exitDx=0;exitDy=0;exitPerimeter=0;fontSize=15;" edge="1" parent="1" source="RymteMKPNR1__H-aDtK5-95" target="RymteMKPNR1__H-aDtK5-4">
          <mxGeometry width="50" height="50" relative="1" as="geometry">
            <mxPoint x="430" y="890" as="sourcePoint" />
            <mxPoint x="480" y="840" as="targetPoint" />
          </mxGeometry>
        </mxCell>
        <mxCell id="RymteMKPNR1__H-aDtK5-121" value="" style="endArrow=none;html=1;rounded=0;entryX=-0.003;entryY=0.819;entryDx=0;entryDy=0;exitX=1;exitY=0;exitDx=0;exitDy=0;entryPerimeter=0;fontSize=15;" edge="1" parent="1" source="RymteMKPNR1__H-aDtK5-94" target="RymteMKPNR1__H-aDtK5-4">
          <mxGeometry width="50" height="50" relative="1" as="geometry">
            <mxPoint x="340" y="880" as="sourcePoint" />
            <mxPoint x="390" y="830" as="targetPoint" />
          </mxGeometry>
        </mxCell>
        <mxCell id="RymteMKPNR1__H-aDtK5-122" value="" style="endArrow=none;html=1;rounded=0;entryX=0.758;entryY=1;entryDx=0;entryDy=0;entryPerimeter=0;exitX=0;exitY=0;exitDx=0;exitDy=0;fontSize=15;" edge="1" parent="1" source="RymteMKPNR1__H-aDtK5-72" target="RymteMKPNR1__H-aDtK5-83">
          <mxGeometry width="50" height="50" relative="1" as="geometry">
            <mxPoint x="690" y="800" as="sourcePoint" />
            <mxPoint x="740" y="750" as="targetPoint" />
          </mxGeometry>
        </mxCell>
        <mxCell id="RymteMKPNR1__H-aDtK5-123" value="" style="endArrow=none;html=1;rounded=0;entryX=0.314;entryY=1.04;entryDx=0;entryDy=0;entryPerimeter=0;exitX=0.467;exitY=0;exitDx=0;exitDy=0;exitPerimeter=0;fontSize=15;" edge="1" parent="1" source="RymteMKPNR1__H-aDtK5-72" target="RymteMKPNR1__H-aDtK5-84">
          <mxGeometry width="50" height="50" relative="1" as="geometry">
            <mxPoint x="760" y="780" as="sourcePoint" />
            <mxPoint x="810" y="730" as="targetPoint" />
          </mxGeometry>
        </mxCell>
        <mxCell id="RymteMKPNR1__H-aDtK5-124" value="" style="endArrow=none;html=1;rounded=0;entryX=0.013;entryY=0.726;entryDx=0;entryDy=0;entryPerimeter=0;exitX=1;exitY=0.25;exitDx=0;exitDy=0;fontSize=15;" edge="1" parent="1" source="RymteMKPNR1__H-aDtK5-72" target="RymteMKPNR1__H-aDtK5-79">
          <mxGeometry width="50" height="50" relative="1" as="geometry">
            <mxPoint x="730" y="880" as="sourcePoint" />
            <mxPoint x="780" y="830" as="targetPoint" />
          </mxGeometry>
        </mxCell>
        <mxCell id="RymteMKPNR1__H-aDtK5-125" value="" style="endArrow=none;html=1;rounded=0;entryX=0;entryY=0.5;entryDx=0;entryDy=0;exitX=1;exitY=0.75;exitDx=0;exitDy=0;fontSize=15;" edge="1" parent="1" source="RymteMKPNR1__H-aDtK5-72" target="RymteMKPNR1__H-aDtK5-82">
          <mxGeometry width="50" height="50" relative="1" as="geometry">
            <mxPoint x="820" y="850" as="sourcePoint" />
            <mxPoint x="870" y="800" as="targetPoint" />
          </mxGeometry>
        </mxCell>
        <mxCell id="RymteMKPNR1__H-aDtK5-126" value="" style="endArrow=none;html=1;rounded=0;entryX=0.816;entryY=1;entryDx=0;entryDy=0;entryPerimeter=0;exitX=0.03;exitY=0.27;exitDx=0;exitDy=0;exitPerimeter=0;fontSize=15;" edge="1" parent="1" source="RymteMKPNR1__H-aDtK5-80" target="RymteMKPNR1__H-aDtK5-72">
          <mxGeometry width="50" height="50" relative="1" as="geometry">
            <mxPoint x="810" y="870" as="sourcePoint" />
            <mxPoint x="860" y="820" as="targetPoint" />
          </mxGeometry>
        </mxCell>
        <mxCell id="RymteMKPNR1__H-aDtK5-127" value="" style="endArrow=none;html=1;rounded=0;entryX=0.17;entryY=1.06;entryDx=0;entryDy=0;entryPerimeter=0;exitX=0.641;exitY=0.038;exitDx=0;exitDy=0;exitPerimeter=0;fontSize=15;" edge="1" parent="1" source="RymteMKPNR1__H-aDtK5-45" target="RymteMKPNR1__H-aDtK5-42">
          <mxGeometry width="50" height="50" relative="1" as="geometry">
            <mxPoint x="860" y="480" as="sourcePoint" />
            <mxPoint x="910" y="430" as="targetPoint" />
          </mxGeometry>
        </mxCell>
        <mxCell id="RymteMKPNR1__H-aDtK5-128" value="" style="endArrow=none;html=1;rounded=0;entryX=0.703;entryY=1.028;entryDx=0;entryDy=0;entryPerimeter=0;exitX=0.249;exitY=0.036;exitDx=0;exitDy=0;exitPerimeter=0;fontSize=15;" edge="1" parent="1" source="RymteMKPNR1__H-aDtK5-46" target="RymteMKPNR1__H-aDtK5-42">
          <mxGeometry width="50" height="50" relative="1" as="geometry">
            <mxPoint x="880" y="520" as="sourcePoint" />
            <mxPoint x="930" y="470" as="targetPoint" />
          </mxGeometry>
        </mxCell>
        <mxCell id="RymteMKPNR1__H-aDtK5-129" value="" style="endArrow=none;html=1;rounded=0;entryX=0.711;entryY=1.107;entryDx=0;entryDy=0;entryPerimeter=0;exitX=0;exitY=0;exitDx=0;exitDy=0;fontSize=15;" edge="1" parent="1" source="RymteMKPNR1__H-aDtK5-47" target="RymteMKPNR1__H-aDtK5-41">
          <mxGeometry width="50" height="50" relative="1" as="geometry">
            <mxPoint x="1020" y="500" as="sourcePoint" />
            <mxPoint x="1070" y="450" as="targetPoint" />
          </mxGeometry>
        </mxCell>
        <mxCell id="RymteMKPNR1__H-aDtK5-130" value="" style="endArrow=none;html=1;rounded=0;entryX=0;entryY=0.5;entryDx=0;entryDy=0;exitX=1;exitY=0.5;exitDx=0;exitDy=0;fontSize=15;" edge="1" parent="1" source="RymteMKPNR1__H-aDtK5-41" target="RymteMKPNR1__H-aDtK5-48">
          <mxGeometry width="50" height="50" relative="1" as="geometry">
            <mxPoint x="1090" y="350" as="sourcePoint" />
            <mxPoint x="1140" y="300" as="targetPoint" />
          </mxGeometry>
        </mxCell>
        <mxCell id="RymteMKPNR1__H-aDtK5-131" value="" style="endArrow=none;html=1;rounded=0;entryX=0.115;entryY=0.854;entryDx=0;entryDy=0;entryPerimeter=0;exitX=0.75;exitY=0;exitDx=0;exitDy=0;fontSize=15;" edge="1" parent="1" source="RymteMKPNR1__H-aDtK5-41" target="RymteMKPNR1__H-aDtK5-49">
          <mxGeometry width="50" height="50" relative="1" as="geometry">
            <mxPoint x="1040" y="270" as="sourcePoint" />
            <mxPoint x="1090" y="220" as="targetPoint" />
          </mxGeometry>
        </mxCell>
        <mxCell id="RymteMKPNR1__H-aDtK5-132" value="" style="endArrow=none;html=1;rounded=0;entryX=0.405;entryY=1.042;entryDx=0;entryDy=0;entryPerimeter=0;exitX=0.572;exitY=0.042;exitDx=0;exitDy=0;exitPerimeter=0;fontSize=15;" edge="1" parent="1" source="RymteMKPNR1__H-aDtK5-75" target="RymteMKPNR1__H-aDtK5-86">
          <mxGeometry width="50" height="50" relative="1" as="geometry">
            <mxPoint x="340" y="1350" as="sourcePoint" />
            <mxPoint x="390" y="1300" as="targetPoint" />
          </mxGeometry>
        </mxCell>
        <mxCell id="RymteMKPNR1__H-aDtK5-133" value="" style="endArrow=none;html=1;rounded=0;entryX=0;entryY=1;entryDx=0;entryDy=0;exitX=0.764;exitY=0.116;exitDx=0;exitDy=0;exitPerimeter=0;fontSize=15;" edge="1" parent="1" source="RymteMKPNR1__H-aDtK5-85" target="RymteMKPNR1__H-aDtK5-75">
          <mxGeometry width="50" height="50" relative="1" as="geometry">
            <mxPoint x="300" y="1340" as="sourcePoint" />
            <mxPoint x="350" y="1290" as="targetPoint" />
          </mxGeometry>
        </mxCell>
        <mxCell id="RymteMKPNR1__H-aDtK5-134" value="" style="endArrow=none;html=1;rounded=0;entryX=0.602;entryY=1.06;entryDx=0;entryDy=0;entryPerimeter=0;exitX=0.5;exitY=0;exitDx=0;exitDy=0;fontSize=15;" edge="1" parent="1" source="RymteMKPNR1__H-aDtK5-88" target="RymteMKPNR1__H-aDtK5-75">
          <mxGeometry width="50" height="50" relative="1" as="geometry">
            <mxPoint x="400" y="1350" as="sourcePoint" />
            <mxPoint x="450" y="1300" as="targetPoint" />
          </mxGeometry>
        </mxCell>
        <mxCell id="RymteMKPNR1__H-aDtK5-135" value="" style="endArrow=none;html=1;rounded=0;entryX=1;entryY=0.5;entryDx=0;entryDy=0;exitX=0.057;exitY=0.292;exitDx=0;exitDy=0;exitPerimeter=0;fontSize=15;" edge="1" parent="1" source="RymteMKPNR1__H-aDtK5-87" target="RymteMKPNR1__H-aDtK5-75">
          <mxGeometry width="50" height="50" relative="1" as="geometry">
            <mxPoint x="460" y="1340" as="sourcePoint" />
            <mxPoint x="510" y="1290" as="targetPoint" />
          </mxGeometry>
        </mxCell>
      </root>
    </mxGraphModel>
  </diagram>
</mxfile>
